<?xml version="1.0" standalone="no"?>
<!DOCTYPE svg PUBLIC "-//W3C//DTD SVG 20010904//EN"
 "http://www.w3.org/TR/2001/REC-SVG-20010904/DTD/svg10.dtd">
<svg version="1.0" xmlns="http://www.w3.org/2000/svg"
 width="450.000000pt" height="300.000000pt" viewBox="0 0 450.000000 300.000000"
 preserveAspectRatio="xMidYMid meet">

<g transform="translate(0.000000,300.000000) scale(0.100000,-0.100000)"
fill="#000000" stroke="none">
<path d="M2925 2723 c-211 -51 -348 -178 -414 -381 -71 -221 49 -571 286 -832
28 -31 28 -30 -2 88 -39 155 -48 294 -30 458 8 77 19 153 24 169 71 215 135
345 229 463 l33 42 -53 -1 c-29 -1 -62 -3 -73 -6z"/>
<path d="M2324 2225 c-41 -77 -74 -196 -74 -266 0 -121 67 -278 155 -364 71
-69 192 -136 271 -151 l39 -7 -30 34 c-16 18 -35 38 -41 44 -65 58 -197 305
-233 435 -20 74 -48 232 -53 300 l-3 35 -31 -60z"/>
<path d="M1355 1904 c-22 -2 -85 -14 -140 -26 l-100 -23 145 -6 c348 -15 459
-37 645 -130 138 -69 174 -111 54 -63 -124 49 -307 94 -494 120 -123 17 -134
17 -254 0 -69 -10 -157 -27 -196 -38 -157 -47 -332 -147 -425 -244 -45 -47
-41 -50 15 -10 17 12 41 27 55 34 14 6 32 16 40 21 49 32 148 64 280 92 87 18
137 22 290 22 162 -1 199 -4 295 -26 109 -25 300 -86 415 -131 19 -8 78 -31
130 -51 52 -20 111 -43 130 -50 82 -32 240 -84 310 -101 61 -15 113 -19 275
-19 184 0 205 2 265 23 79 29 109 44 169 87 69 49 89 57 170 75 l75 16 -44 18
c-25 10 -81 22 -125 26 -75 9 -178 40 -199 61 -17 16 -27 10 -17 -9 16 -31 84
-92 109 -98 12 -4 22 -12 22 -19 0 -13 -88 -75 -107 -75 -5 0 -24 -7 -40 -15
-17 -9 -70 -20 -118 -27 -136 -17 -272 7 -395 71 -46 24 -214 138 -246 166 -6
6 -23 19 -38 30 -16 11 -56 40 -89 66 -139 102 -232 146 -442 209 -79 24 -275
35 -420 24z"/>
<path d="M1105 1584 c-11 -3 -49 -12 -85 -20 -146 -33 -361 -144 -465 -239
-81 -75 -113 -106 -148 -144 -42 -48 -112 -150 -106 -155 2 -2 28 18 58 45 30
27 86 71 125 97 39 26 73 50 76 53 10 13 157 87 215 109 33 12 67 26 75 30 9
4 31 11 50 15 19 4 58 14 85 23 72 24 427 24 500 1 28 -9 84 -26 125 -38 41
-13 91 -28 110 -36 19 -7 71 -25 115 -40 122 -42 158 -55 180 -64 183 -77 425
-143 590 -161 146 -17 270 4 410 67 42 18 205 127 285 188 25 20 50 39 55 43
21 16 128 52 158 53 31 1 31 1 -9 14 -53 17 -113 5 -170 -33 -22 -15 -67 -45
-100 -67 -89 -60 -111 -70 -209 -95 -121 -31 -359 -34 -480 -6 -258 60 -428
114 -560 176 -11 6 -51 21 -90 35 -38 14 -79 30 -90 35 -29 13 -210 62 -350
95 -68 17 -308 29 -350 19z"/>
<path d="M3940 1410 c-19 -16 -38 -30 -42 -30 -4 0 -26 -13 -50 -29 -126 -85
-347 -139 -522 -128 l-89 6 -45 -40 c-25 -21 -67 -52 -94 -67 -47 -27 -48 -29
-26 -40 73 -35 145 -46 303 -47 187 0 258 15 368 78 130 75 242 214 235 292
l-3 34 -35 -29z"/>
<path d="M2891 1025 c-18 -8 -54 -15 -79 -15 -44 0 -45 -1 -26 -17 26 -23 95
-57 164 -80 81 -27 277 -24 386 5 45 12 101 31 125 42 l44 20 -40 -7 c-22 -4
-101 -7 -175 -7 -137 0 -201 13 -291 59 -35 19 -64 18 -108 0z"/>
<path d="M533 1003 c-10 -3 -13 -56 -13 -214 l0 -209 50 0 50 0 0 89 0 89 88
-2 87 -1 3 -87 3 -88 49 0 50 0 0 210 0 210 -25 6 c-14 3 -36 3 -50 0 -24 -6
-25 -9 -25 -91 l0 -85 -90 0 -90 0 0 84 c0 78 -1 84 -22 90 -26 7 -48 7 -65
-1z"/>
<path d="M1007 1003 c-4 -3 -7 -76 -7 -160 0 -134 3 -159 20 -193 27 -52 57
-71 127 -77 77 -6 128 12 167 60 l31 39 3 168 3 168 -43 -2 -43 -1 -5 -150
c-6 -181 -16 -205 -85 -205 -69 0 -79 24 -85 205 l-5 150 -36 2 c-19 2 -39 0
-42 -4z"/>
<path d="M1455 1002 c-3 -3 -5 -99 -5 -214 l0 -208 40 0 40 0 0 155 c0 85 4
155 9 155 7 0 34 -70 93 -248 l21 -63 41 3 40 3 28 80 c15 44 40 115 54 158
15 42 29 75 32 72 3 -3 4 -75 3 -160 l-3 -155 46 0 46 0 -2 213 -3 212 -55 1
c-66 1 -80 -3 -80 -25 0 -9 -6 -28 -14 -43 -8 -15 -17 -42 -21 -60 -4 -18 -11
-37 -15 -43 -4 -5 -16 -38 -25 -72 -10 -35 -21 -63 -25 -63 -4 0 -28 64 -54
143 -26 78 -52 147 -57 153 -9 11 -124 16 -134 6z"/>
<path d="M2155 999 c-37 -10 -94 -64 -111 -104 -55 -132 3 -284 121 -314 157
-40 275 53 275 216 0 95 -56 183 -130 203 -42 12 -114 12 -155 -1z m133 -85
c76 -53 70 -210 -9 -252 -29 -15 -93 -10 -112 10 -64 63 -60 186 7 240 26 22
84 23 114 2z"/>
</g>
</svg>
